<svg xmlns="http://www.w3.org/2000/svg" viewBox="0 0 40 50"><defs><style>.a,.b{fill:#fff;}.b{stroke:#fff;stroke-linecap:round;stroke-width:2.5px;}</style></defs><g transform="translate(-865 -582.69)"><path class="a" d="M39.654,15.248,31.48,3.709a3.061,3.061,0,0,0-2.818-1.044H6.123C3.064,2.676,0,1.954,0,4.787V49.258c0,2.833,1.373,3.332,4.433,3.332H37.442c3.059,0,2.522-1.028,2.522-3.861V17.641a9.23,9.23,0,0,0-.31-2.392Zm-3.09.492H30.127V6.434ZM3.378,49.258V5.776H27.539v9.965a2.468,2.468,0,0,0,2.588,2.515h6.437v31Z" transform="translate(865 580.1)"/><path class="b" d="M0,0V14" transform="translate(884.938 600.664)"/><path class="b" d="M0,.024H15.888" transform="translate(876.918 607.667)"/></g></svg>