<svg xmlns="http://www.w3.org/2000/svg" viewBox="0 0 50 50"><defs><style>.a{fill:#fff;}</style></defs><path class="a" d="M106.456,18.437a41.411,41.411,0,0,1-7.185-1.761L92.9,14.011S89.65,12.5,88.143,11.978s-1.691-.324-1.691-.324a7.7,7.7,0,0,1-3.733,1.351,10.422,10.422,0,0,1-4.113-.542s-1.521-.413-1.521-1.206S79,9.754,79,9.754a13.332,13.332,0,0,1,3.719-.44,14.163,14.163,0,0,1,3.733.785s2.251-1.328,4.377-2.49a25.024,25.024,0,0,1-5.091-1.271,22.892,22.892,0,0,1-7.15-4.165A19.474,19.474,0,0,1,73.768-4,17.065,17.065,0,0,1,72-11.568a17.065,17.065,0,0,1,1.768-7.564,19.474,19.474,0,0,1,4.821-6.177,22.892,22.892,0,0,1,7.15-4.165A25.439,25.439,0,0,1,94.495-31a25.435,25.435,0,0,1,8.755,1.527,22.892,22.892,0,0,1,7.15,4.165,19.475,19.475,0,0,1,4.821,6.177,17.065,17.065,0,0,1,1.768,7.564A17.065,17.065,0,0,1,115.221-4,19.475,19.475,0,0,1,110.4,2.173a22.892,22.892,0,0,1-7.15,4.165,25.435,25.435,0,0,1-8.755,1.527q-.978,0-1.943-.071c-2.26,1.166-4.977,2.635-4.409,2.686,1.069.1,1.973.485,4.755.778s4.378.293,6.373.4a64.673,64.673,0,0,0,7.619,0,22.835,22.835,0,0,0,6.3-1.175A13.884,13.884,0,0,0,117.732,7.6a33.188,33.188,0,0,1,3.664-3.09c1.244-.763.219,4.411,0,5.585a19.175,19.175,0,0,1-1.465,4.814c-.851,1.537-1.705,2.643-4.965,3.524a13.394,13.394,0,0,1-3.643.563A34.426,34.426,0,0,1,106.456,18.437ZM86.545-24.355A23.8,23.8,0,0,0,83.28-11.827,23.8,23.8,0,0,0,86.545.7c2.106,3.347,4.906,5.19,7.884,5.19s5.778-1.843,7.884-5.19a23.8,23.8,0,0,0,3.265-12.528,23.8,23.8,0,0,0-3.265-12.528c-2.106-3.347-4.906-5.19-7.884-5.19S88.652-27.7,86.545-24.355Z" transform="translate(-72 31)"/></svg>