<svg xmlns="http://www.w3.org/2000/svg" viewBox="0 0 40 50"><defs><style>.a{fill:#fff;}</style></defs><g transform="translate(-930.143 -582.569)"><path class="a" d="M40.433,43.479l-7.577-8.873c-.835-1.064-2.169-1.037-3.349-1.037H4.644c-2.458,0-3.5,1.985-3.5,5.117V79.166c0,3.132,1.043,4.4,3.5,4.4H37.123c2.458,0,4.013-1.271,4.013-4.4V47.489c0-1.5.132-2.946-.7-4.01Zm-10.926-7.43V48.7H13.529V36.049ZM37.6,80.683H4.644c-.307,0-.516-1.126-.516-1.517V37.839c0-.391.209-1.79.516-1.79h6.065V48.7a2.555,2.555,0,0,0,2.27,2.773H29.507A3.007,3.007,0,0,0,32.332,48.7V37.839l4.791,5.64A16.777,16.777,0,0,1,38.4,45.548V79.166C38.4,79.557,37.9,80.683,37.6,80.683ZM21.708,57.864A8.667,8.667,0,0,0,13.529,66c0,4.16,4.042,8.408,8.179,8.408S30.075,70.138,30.075,66,25.84,57.864,21.708,57.864Zm0,14.1A6.408,6.408,0,0,1,15.786,66a6.244,6.244,0,0,1,5.923-5.787c2.985,0,6.017,2.85,6.017,5.787A6.5,6.5,0,0,1,21.708,71.965Z" transform="translate(929 549)"/></g></svg>