<svg xmlns="http://www.w3.org/2000/svg" xmlns:xlink="http://www.w3.org/1999/xlink" viewBox="0 0 288 288"><defs><style>.a{clip-path:url(#b);}.b{fill:#707070;}.b,.c{stroke:#707070;}.c{fill:#fff;}.d{stroke:none;}.e{fill:none;}</style><clipPath id="b"><rect width="288" height="288"/></clipPath></defs><g id="a" class="a"><g class="b" transform="translate(280.549 94.033) rotate(150)"><rect class="d" width="287" height="52"/><rect class="e" x="0.5" y="0.5" width="286" height="51"/></g><g class="b" transform="translate(169 0) rotate(90)"><rect class="d" width="287" height="52"/><rect class="e" x="0.5" y="0.5" width="286" height="51"/></g><g class="b" transform="translate(32 49) rotate(30)"><rect class="d" width="287" height="52"/><rect class="e" x="0.5" y="0.5" width="286" height="51"/></g><g class="b" transform="translate(0 117)"><rect class="d" width="287" height="52"/><rect class="e" x="0.5" y="0.5" width="286" height="51"/></g><g class="b" transform="translate(49 254.549) rotate(-60)"><rect class="d" width="287" height="52"/><rect class="e" x="0.5" y="0.5" width="286" height="51"/></g><g class="b" transform="translate(91.573 7) rotate(59)"><rect class="d" width="287" height="52"/><rect class="e" x="0.5" y="0.5" width="286" height="51"/></g><g class="b" transform="translate(53 53)"><circle class="d" cx="90.5" cy="90.5" r="90.5"/><circle class="e" cx="90.5" cy="90.5" r="90"/></g><g class="c" transform="translate(84 84)"><circle class="d" cx="59" cy="59" r="59"/><circle class="e" cx="59" cy="59" r="58.5"/></g></g></svg>