<svg xmlns="http://www.w3.org/2000/svg" xmlns:xlink="http://www.w3.org/1999/xlink" viewBox="0 0 288 288"><defs><style>.a{clip-path:url(#b);}.b,.e{fill:none;}.b{stroke:#fff;stroke-width:20px;}.c{fill:#fff;}.d{stroke:none;}</style><clipPath id="b"><rect width="288" height="288"/></clipPath></defs><g id="a" class="a"><g class="b" transform="translate(54 54)"><circle class="d" cx="90.5" cy="90.5" r="90.5"/><circle class="e" cx="90.5" cy="90.5" r="80.5"/></g><rect class="c" width="69" height="52" transform="translate(95.756 203.033) rotate(150)"/><rect class="c" width="69" height="52" transform="translate(279.756 99.033) rotate(150)"/><rect class="c" width="62" height="52" transform="translate(170 221) rotate(90)"/><rect class="c" width="62" height="52" transform="translate(170 11) rotate(90)"/><rect class="c" width="62" height="52" transform="translate(222.856 161.5) rotate(30)"/><rect class="c" width="62" height="52" transform="translate(38.856 53.5) rotate(30)"/><rect class="c" width="62" height="52" transform="translate(218 118)"/><rect class="c" width="62" height="52" transform="translate(10 118)"/><rect class="c" width="63" height="52" transform="translate(49 254.549) rotate(-60)"/><rect class="c" width="63" height="52" transform="translate(160 70.549) rotate(-60)"/><rect class="c" width="55" height="52" transform="translate(208.062 206.863) rotate(59)"/><rect class="c" width="55" height="52" transform="translate(98.062 16.863) rotate(59)"/></g></svg>