<svg xmlns="http://www.w3.org/2000/svg" xmlns:xlink="http://www.w3.org/1999/xlink" viewBox="0 0 238 283"><defs><style>.a{clip-path:url(#b);}.b,.c{fill:#fff;}.b,.c,.d{stroke:#707070;}.b{stroke-width:5px;}.c,.d{stroke-width:2px;}.d,.g{fill:none;}.e,.h{fill:#707070;}.f,.h{stroke:none;}</style><clipPath id="b"><rect width="238" height="283"/></clipPath></defs><g id="a" class="a"><g class="b" transform="translate(3 10)"><rect class="f" width="203" height="272"/><rect class="g" x="2.5" y="2.5" width="198" height="267"/></g><g class="c" transform="translate(219.889 0.454) rotate(30)"><rect class="f" width="17" height="115" rx="8.5"/><rect class="g" x="1" y="1" width="15" height="113" rx="7.5"/></g><path class="d" d="M8.454-.241,2.642,18.039,2.113,19.7,0,26.348" transform="translate(158.247 95.648)"/><path class="d" d="M19.816-.441,0,18.42" transform="translate(158.247 103.576)"/><g class="e" transform="matrix(0.839, 0.545, -0.545, 0.839, 159.638, 114.569)"><path class="f" d="M 2.17676830291748 6.44787073135376 L 0.645070493221283 0.5000025629997253 L 3.844485759735107 0.5000025629997253 L 2.17676830291748 6.44787073135376 Z"/><path class="h" d="M 1.290140867233276 1.000002384185791 L 2.19729208946228 4.522640228271484 L 3.185001373291016 1.000002384185791 L 1.290140867233276 1.000002384185791 M 0 2.384185791015625e-06 L 4.503960132598877 2.384185791015625e-06 L 2.534260034561157 7.024882793426514 L 1.782760143280029 6.922792434692383 L 0 2.384185791015625e-06 Z"/></g><line class="d" y1="92" x2="54" transform="translate(167.5 9.5)"/><line class="d" y1="92" x2="54" transform="translate(172.5 12.5)"/></g></svg>