<svg xmlns="http://www.w3.org/2000/svg" xmlns:xlink="http://www.w3.org/1999/xlink" viewBox="0 0 89 169"><defs><style>.a{clip-path:url(#b);}.b{fill:#ececec;}.c,.d{fill:#fff;}.c,.e{stroke:#707070;stroke-width:2px;}.e,.h{fill:none;}.f,.g{stroke:none;}.g{fill:#707070;}</style><clipPath id="b"><rect width="89" height="169"/></clipPath></defs><g id="a" class="a"><g class="b" transform="matrix(-0.921, 0.391, -0.391, -0.921, 77.655, 63.304)"><path class="f" d="M 47.5 7.5 L 0.5 7.5 L 0.5 0.5 L 47.5 0.5 L 47.5 7.5 Z"/><path class="g" d="M 1 1 L 1 7 L 47 7 L 47 1 L 1 1 M 0 0 L 48 0 L 48 8 L 0 8 L 0 0 Z"/></g><g class="b" transform="translate(23.19 55.94) rotate(19)"><path class="f" d="M 16.26189613342285 9.135702133178711 L 0.5000051856040955 9.135702133178711 L 0.5000051856040955 0.5000025033950806 L 16.26189613342285 0.5000025033950806 L 16.26189613342285 9.135702133178711 Z"/><path class="g" d="M 0.999995231628418 1.000002861022949 L 0.999995231628418 8.635702133178711 L 15.76188468933105 8.635702133178711 L 15.76188468933105 1.000002861022949 L 0.999995231628418 1.000002861022949 M -5.7220458984375e-06 2.86102294921875e-06 L 16.76188468933105 2.86102294921875e-06 L 16.76188468933105 9.635702133178711 L -5.7220458984375e-06 9.635702133178711 L -5.7220458984375e-06 2.86102294921875e-06 Z"/></g><g class="c" transform="translate(9 61)"><rect class="f" width="79" height="107" rx="6"/><rect class="h" x="1" y="1" width="77" height="105" rx="5"/></g><g class="d" transform="translate(0.477 52.688) rotate(-42)"><path class="f" d="M 78 14 L 1 14 L 1 1 L 78 1 L 78 14 Z"/><path class="g" d="M 2 2 L 2 13 L 77 13 L 77 2 L 2 2 M 0 0 L 79 0 L 79 15 L 0 15 L 0 0 Z"/></g><line class="e" x2="78" y2="1" transform="translate(9.5 71.5)"/><line class="e" y2="94" transform="translate(29.5 72.5)"/><line class="e" y2="94" transform="translate(67.5 72.5)"/></g></svg>